# xmcd CD database file
#
# Track frame offsets:
#	150
#	9634
#	34681
#	53316
#	78617
#	88877
#	106367
#	114977
#	131128
#	139103
#	168850
#	185362
#	212863
#
# Disc length: 2914 seconds
#
# Revision: 0
# Processed by: cddbd v1.5.2PL0 Copyright (c) Steve Scherf et al.
# Submitted via: CDex 1.51
#
DISCID=aa0b600d
DTITLE=Sam Barsh - I Forgot What You Taught Me
DYEAR=1900
DGENRE=Jazz
TTITLE0=Welcome to Barsh's World
TTITLE1=Plans Change
TTITLE2=Wake Up and Smile
TTITLE3=NuTrance
TTITLE4=George Dub
TTITLE5=Rainy Day Jam
TTITLE6=Jew Hefner
TTITLE7=Between Dead and Alive
TTITLE8=Rainy Day Loop
TTITLE9=Harriet Nyborg
TTITLE10=Plans Change (reprise)
TTITLE11=This is the Song
TTITLE12=Goodbye For Now...
EXTD=
EXTT0=
EXTT1=
EXTT2=
EXTT3=
EXTT4=
EXTT5=
EXTT6=
EXTT7=
EXTT8=
EXTT9=
EXTT10=
EXTT11=
EXTT12=
PLAYORDER=
